# xmcd
#
# Track frame offsets: 
#        150
#        16790
#        34075
#        48355
#        66665
#        84642
#        103932
#        124720
#        144140
#        162590
#        174055
#        194690
#        215215
#        239075
#
# Disc length: 3636 seconds
#
# Revision: 3
# Processed by: cddbd v1.4PL0 Copyright (c) Steve Scherf et al.
# Submitted via: ExactAudioCopy v0.90b3
#
DISCID=cd0e320e
DTITLE=Ricky Skaggs - Live In London
DYEAR=1985
DGENRE=Country
TTITLE0=Uncle Pen
TTITLE1=I've Got A New Heartache
TTITLE2=Heartbroke
TTITLE3=She Didn't Say Why
TTITLE4=Cajun Moon
TTITLE5=You Make Me Feel Like A Man
TTITLE6=Rendezvous
TTITLE7=Rockin' The Boat
TTITLE8=Honey (Open That Door)
TTITLE9=Talk About Suffering
TTITLE10=Country Boy
TTITLE11=Highway 40 Blues
TTITLE12=Waitin' For The Sun To Shine
TTITLE13=Don't Get Above Your Raising
EXTD=YEAR: 1985 ID3G:   2
EXTT0=
EXTT1=
EXTT2=
EXTT3=
EXTT4=
EXTT5=
EXTT6=
EXTT7=
EXTT8=
EXTT9=
EXTT10=
EXTT11=
EXTT12=
EXTT13=
PLAYORDER=
